<svg width="131" height="43" viewBox="0 0 131 43" fill="none" xmlns="http://www.w3.org/2000/svg">
<g filter="url(#filter0_d)">
<path d="M20.17 6.904V29.987H23.204V1.287H18.735L14.184 24.206L9.469 1.287H5V29.987H7.788V7.109L12.544 29.946H15.619L20.17 6.904Z" fill="white"/>
<path d="M29.6999 13.997V4.198H38.3099V1.287H26.5019V29.987H38.3099V27.076H29.6999V16.867H36.7109V13.997H29.6999Z" fill="white"/>
<path d="M52.8794 4.198V29.987H56.0774V1.287H44.3924L43.6133 23.017C43.5314 25.764 43.0804 27.117 40.4154 27.117V30.028H40.9484C45.3354 29.987 46.5654 27.404 46.7294 22.853L47.3854 4.198H52.8794Z" fill="white"/>
<path d="M59.2481 23.058C59.2481 27.404 61.4211 30.274 65.8081 30.274C70.2361 30.274 72.4091 27.404 72.4091 23.058V8.216C72.4091 3.829 70.2361 1 65.8081 1C61.4211 1 59.2481 3.829 59.2481 8.216V23.058ZM62.4051 8.052C62.4051 5.469 63.5121 3.911 65.8081 3.911C68.1451 3.911 69.2111 5.469 69.2111 8.052V23.222C69.2111 25.846 68.1451 27.363 65.8081 27.363C63.5121 27.363 62.4051 25.846 62.4051 23.222V8.052Z" fill="white"/>
<path d="M92.6907 33.923V27.158H90.5177V1.287H78.9967L77.8897 22.976C77.8077 24.739 77.6027 26.051 76.6187 27.158H74.7737V33.923H77.8487V29.987H89.5747V33.923H92.6907ZM81.9487 4.198H87.2787V27.158H79.6937C80.5957 26.215 80.8827 24.985 81.0057 22.935L81.9487 4.198Z" fill="white"/>
<path d="M106.149 7.15V29.987H109.019V1.287H105.452L100.86 14.776L98.3182 22.689V1.287H95.4892V29.987H98.8102L103.033 16.744L106.149 7.15Z" fill="white"/>
<path d="M121.942 17.728V29.987H125.14V1.287H118.744C114.234 1.287 112.348 3.583 112.348 7.847V10.184C112.348 13.341 113.455 15.309 115.874 16.088C113.291 16.867 112.307 18.999 112.307 22.074V26.543C112.307 27.814 112.225 29.003 111.733 29.987H114.972C115.341 29.167 115.505 28.429 115.505 26.502V21.992C115.505 18.753 117.022 17.728 119.687 17.728H121.942ZM121.942 4.198V14.817H119.523C117.022 14.817 115.505 13.997 115.505 10.881V8.134C115.505 5.551 116.448 4.198 118.826 4.198H121.942Z" fill="white"/>
<path d="M19.67 12.016V29.987V30.487H20.17H23.204H23.704V29.987V1.287V0.786999H23.204H18.735H18.3245L18.2446 1.18962L14.1753 21.6825L9.95874 1.18625L9.87661 0.786999H9.469H5H4.5V1.287V29.987V30.487H5H7.788H8.288V29.987V11.9622L12.0545 30.0479L12.1374 30.446H12.544H15.619H16.0299L16.1095 30.0429L19.67 12.016ZM36.7109 13.497H30.1999V4.698H38.3099H38.8099V4.198V1.287V0.786999H38.3099H26.5019H26.0019V1.287V29.987V30.487H26.5019H38.3099H38.8099V29.987V27.076V26.576H38.3099H30.1999V17.367H36.7109H37.2109V16.867V13.997V13.497H36.7109ZM52.3794 4.698V29.987V30.487H52.8794H56.0774H56.5774V29.987V1.287V0.786999H56.0774H44.3924H43.91L43.8927 1.26909L43.1137 22.9991L43.1136 23.0021C43.0722 24.3878 42.9335 25.272 42.5674 25.8191C42.2438 26.3026 41.668 26.617 40.4154 26.617H39.9154V27.117V30.028V30.528H40.4154L40.9484 30.528L40.953 30.528C43.2509 30.5065 44.8312 29.8116 45.8285 28.4235C46.7961 27.0769 47.1464 25.1647 47.229 22.871L47.229 22.8706L47.8681 4.698H52.3794ZM92.6907 34.423H93.1907V33.923V27.158V26.658H92.6907H91.0177V1.287V0.786999H90.5177H78.9967H78.5215L78.4973 1.26151L77.3903 22.9505L77.3902 22.9528C77.3134 24.6041 77.1279 25.7244 76.3861 26.658H74.7737H74.2737V27.158V33.923V34.423H74.7737H77.8487H78.3487V33.923V30.487H89.0747V33.923V34.423H89.5747H92.6907ZM82.4241 4.698H86.7787V26.658H80.684C81.2211 25.7078 81.4109 24.5289 81.5048 22.9649L81.505 22.9601L82.4241 4.698ZM105.649 10.3081V29.987V30.487H106.149H109.019H109.519V29.987V1.287V0.786999H109.019H105.452H105.094L104.979 1.12587L100.387 14.6149L100.387 14.6148L100.384 14.6231L98.8182 19.4977V1.287V0.786999H98.3182H95.4892H94.9892V1.287V29.987V30.487H95.4892H98.8102H99.1756L99.2866 30.1389L103.509 16.8985L103.51 16.8959L105.649 10.3081ZM119.687 18.228H121.442V29.987V30.487H121.942H125.14H125.64V29.987V1.287V0.786999H125.14H118.744C116.409 0.786999 114.653 1.38207 113.489 2.62648C112.332 3.86425 111.848 5.65241 111.848 7.847V10.184C111.848 11.8152 112.133 13.1942 112.773 14.2814C113.221 15.0426 113.831 15.6407 114.6 16.0773C113.769 16.5328 113.136 17.1721 112.685 17.9755C112.059 19.0933 111.807 20.4907 111.807 22.074V26.543C111.807 27.8108 111.72 28.8938 111.285 29.7634L110.924 30.487H111.733H114.972H115.295L115.428 30.1922C115.837 29.2812 116.005 28.4635 116.005 26.502V21.992C116.005 20.4398 116.369 19.5387 116.936 19.0119C117.511 18.4781 118.402 18.228 119.687 18.228ZM58.7481 23.058C58.7481 25.3077 59.3102 27.2432 60.505 28.623C61.7095 30.0141 63.4993 30.774 65.8081 30.774C68.136 30.774 69.9362 30.0151 71.1464 28.6239C72.347 27.2438 72.9091 25.3077 72.9091 23.058V8.216C72.9091 5.94679 72.3475 4.00979 71.1457 2.63395C69.9345 1.24725 68.1338 0.5 65.8081 0.5C63.5015 0.5 61.7112 1.24818 60.5057 2.63482C59.3098 4.01036 58.7481 5.94677 58.7481 8.216V23.058ZM62.9051 8.052C62.9051 6.82124 63.1704 5.91368 63.6377 5.32315C64.0895 4.7522 64.7831 4.411 65.8081 4.411C66.856 4.411 67.5473 4.75366 67.9925 5.32141C68.4545 5.91055 68.7111 6.81742 68.7111 8.052V23.222C68.7111 24.4788 68.4538 25.3839 67.9936 25.9666C67.5504 26.5277 66.8603 26.863 65.8081 26.863C64.7789 26.863 64.0864 26.5292 63.6366 25.9648C63.1711 25.3808 62.9051 24.475 62.9051 23.222V8.052ZM121.442 4.698V14.317H119.523C118.306 14.317 117.454 14.1128 116.902 13.6383C116.366 13.1783 116.005 12.3674 116.005 10.881V8.134C116.005 6.88641 116.236 6.04091 116.663 5.51119C117.071 5.00488 117.733 4.698 118.826 4.698H121.442Z" stroke="black"/>
</g>
<defs>
<filter id="filter0_d" x="0" y="0" width="130.14" height="42.923" filterUnits="userSpaceOnUse" color-interpolation-filters="sRGB">
<feFlood flood-opacity="0" result="BackgroundImageFix"/>
<feColorMatrix in="SourceAlpha" type="matrix" values="0 0 0 0 0 0 0 0 0 0 0 0 0 0 0 0 0 0 127 0" result="hardAlpha"/>
<feOffset dy="4"/>
<feGaussianBlur stdDeviation="2"/>
<feComposite in2="hardAlpha" operator="out"/>
<feColorMatrix type="matrix" values="0 0 0 0 0 0 0 0 0 0 0 0 0 0 0 0 0 0 0.25 0"/>
<feBlend mode="normal" in2="BackgroundImageFix" result="effect1_dropShadow"/>
<feBlend mode="normal" in="SourceGraphic" in2="effect1_dropShadow" result="shape"/>
</filter>
</defs>
</svg>
